{
    "asset" : {
        "generator" : "Khronos glTF Blender I/O v1.4.40",
        "version" : "2.0"
    },
    "scene" : 0,
    "scenes" : [
        {
            "name" : "Scene",
            "nodes" : [
                0,
                1,
                2,
                3,
                4,
                5
            ]
        }
    ],
    "nodes" : [
        {
            "name" : "GOOGLE_SAT_WM",
            "scale" : [
                535.0592041015625,
                1,
                535.0592041015625
            ],
            "translation" : [
                -12.88769817352295,
                0,
                15.833287239074707
            ]
        },
        {
            "name" : "Light",
            "rotation" : [
                0.16907575726509094,
                0.7558803558349609,
                -0.27217137813568115,
                0.570947527885437
            ],
            "translation" : [
                8424997,
                5.903861999511719,
                5657349
            ]
        },
        {
            "name" : "Camera",
            "rotation" : [
                0.483536034822464,
                0.33687159419059753,
                -0.20870360732078552,
                0.7804827094078064
            ],
            "translation" : [
                8425000,
                4.958309173583984,
                5657357
            ]
        },
        {
            "mesh" : 0,
            "name" : "Cube.005",
            "rotation" : [
                -0.0032104600686579943,
                0.9061251282691956,
                -0.02915152721107006,
                0.42199215292930603
            ],
            "scale" : [
                14.501538276672363,
                2.67964506149292,
                6.586359024047852
            ],
            "translation" : [
                -61.46776580810547,
                89.48332214355469,
                32.183326721191406
            ]
        },
        {
            "mesh" : 1,
            "name" : "Cube.445",
            "rotation" : [
                0.01722031645476818,
                -0.3360218107700348,
                0.00614478113129735,
                -0.9416768550872803
            ],
            "scale" : [
                14.099334716796875,
                2.556487798690796,
                5.13689661026001
            ],
            "translation" : [
                -57.76182174682617,
                88.35324096679688,
                4.355372428894043
            ]
        },
        {
            "name" : "665611253",
            "scale" : [
                6.475379943847656,
                6.475379943847656,
                6.475379943847656
            ],
            "translation" : [
                -2.375232696533203,
                -8.224775314331055,
                29.958009719848633
            ]
        }
    ],
    "materials" : [
        {
            "doubleSided" : true,
            "name" : "Material.002",
            "pbrMetallicRoughness" : {
                "baseColorFactor" : [
                    0.07296973466873169,
                    0.009546694345772266,
                    0.00801018811762333,
                    1
                ],
                "metallicFactor" : 0,
                "roughnessFactor" : 0.5
            }
        },
        {
            "doubleSided" : true,
            "name" : "Material.001",
            "pbrMetallicRoughness" : {
                "baseColorFactor" : [
                    0.005925309844315052,
                    0.0003396591346245259,
                    0.001812261645682156,
                    1
                ],
                "metallicFactor" : 0,
                "roughnessFactor" : 0.5
            }
        },
        {
            "doubleSided" : true,
            "name" : "Material.1003",
            "pbrMetallicRoughness" : {
                "baseColorFactor" : [
                    0.07296973466873169,
                    0.009546694345772266,
                    0.00801018811762333,
                    1
                ],
                "metallicFactor" : 0,
                "roughnessFactor" : 0.5
            }
        },
        {
            "doubleSided" : true,
            "name" : "Material.1002",
            "pbrMetallicRoughness" : {
                "baseColorFactor" : [
                    0.005925309844315052,
                    0.0003396591346245259,
                    0.001812261645682156,
                    1
                ],
                "metallicFactor" : 0,
                "roughnessFactor" : 0.5
            }
        }
    ],
    "meshes" : [
        {
            "name" : "Cube.002",
            "primitives" : [
                {
                    "attributes" : {
                        "POSITION" : 0,
                        "NORMAL" : 1,
                        "TEXCOORD_0" : 2
                    },
                    "indices" : 3,
                    "material" : 0
                },
                {
                    "attributes" : {
                        "POSITION" : 4,
                        "NORMAL" : 5,
                        "TEXCOORD_0" : 6
                    },
                    "indices" : 7,
                    "material" : 1
                }
            ]
        },
        {
            "name" : "Cube.446",
            "primitives" : [
                {
                    "attributes" : {
                        "POSITION" : 8,
                        "NORMAL" : 9,
                        "TEXCOORD_0" : 10
                    },
                    "indices" : 11,
                    "material" : 2
                },
                {
                    "attributes" : {
                        "POSITION" : 12,
                        "NORMAL" : 13,
                        "TEXCOORD_0" : 14
                    },
                    "indices" : 7,
                    "material" : 3
                }
            ]
        }
    ],
    "accessors" : [
        {
            "bufferView" : 0,
            "componentType" : 5126,
            "count" : 732,
            "max" : [
                0.9102039337158203,
                2.3639540672302246,
                1.001856803894043
            ],
            "min" : [
                -1.404861569404602,
                -1,
                -1
            ],
            "type" : "VEC3"
        },
        {
            "bufferView" : 1,
            "componentType" : 5126,
            "count" : 732,
            "type" : "VEC3"
        },
        {
            "bufferView" : 2,
            "componentType" : 5126,
            "count" : 732,
            "type" : "VEC2"
        },
        {
            "bufferView" : 3,
            "componentType" : 5123,
            "count" : 1452,
            "type" : "SCALAR"
        },
        {
            "bufferView" : 4,
            "componentType" : 5126,
            "count" : 40,
            "max" : [
                0.9385890364646912,
                2.5574309825897217,
                1.0492339134216309
            ],
            "min" : [
                -1.4396884441375732,
                0.9763138294219971,
                -1.0098541975021362
            ],
            "type" : "VEC3"
        },
        {
            "bufferView" : 5,
            "componentType" : 5126,
            "count" : 40,
            "type" : "VEC3"
        },
        {
            "bufferView" : 6,
            "componentType" : 5126,
            "count" : 40,
            "type" : "VEC2"
        },
        {
            "bufferView" : 7,
            "componentType" : 5123,
            "count" : 60,
            "type" : "SCALAR"
        },
        {
            "bufferView" : 8,
            "componentType" : 5126,
            "count" : 532,
            "max" : [
                0.9102039337158203,
                2.3639540672302246,
                1.001856803894043
            ],
            "min" : [
                -1,
                -1,
                -1
            ],
            "type" : "VEC3"
        },
        {
            "bufferView" : 9,
            "componentType" : 5126,
            "count" : 532,
            "type" : "VEC3"
        },
        {
            "bufferView" : 10,
            "componentType" : 5126,
            "count" : 532,
            "type" : "VEC2"
        },
        {
            "bufferView" : 11,
            "componentType" : 5123,
            "count" : 1038,
            "type" : "SCALAR"
        },
        {
            "bufferView" : 12,
            "componentType" : 5126,
            "count" : 40,
            "max" : [
                0.9452226161956787,
                2.4986462593078613,
                1.120667815208435
            ],
            "min" : [
                -1.0185185670852661,
                0.7995054721832275,
                -1.0921226739883423
            ],
            "type" : "VEC3"
        },
        {
            "bufferView" : 13,
            "componentType" : 5126,
            "count" : 40,
            "type" : "VEC3"
        },
        {
            "bufferView" : 14,
            "componentType" : 5126,
            "count" : 40,
            "type" : "VEC2"
        }
    ],
    "bufferViews" : [
        {
            "buffer" : 0,
            "byteLength" : 8784,
            "byteOffset" : 0
        },
        {
            "buffer" : 0,
            "byteLength" : 8784,
            "byteOffset" : 8784
        },
        {
            "buffer" : 0,
            "byteLength" : 5856,
            "byteOffset" : 17568
        },
        {
            "buffer" : 0,
            "byteLength" : 2904,
            "byteOffset" : 23424
        },
        {
            "buffer" : 0,
            "byteLength" : 480,
            "byteOffset" : 26328
        },
        {
            "buffer" : 0,
            "byteLength" : 480,
            "byteOffset" : 26808
        },
        {
            "buffer" : 0,
            "byteLength" : 320,
            "byteOffset" : 27288
        },
        {
            "buffer" : 0,
            "byteLength" : 120,
            "byteOffset" : 27608
        },
        {
            "buffer" : 0,
            "byteLength" : 6384,
            "byteOffset" : 27728
        },
        {
            "buffer" : 0,
            "byteLength" : 6384,
            "byteOffset" : 34112
        },
        {
            "buffer" : 0,
            "byteLength" : 4256,
            "byteOffset" : 40496
        },
        {
            "buffer" : 0,
            "byteLength" : 2076,
            "byteOffset" : 44752
        },
        {
            "buffer" : 0,
            "byteLength" : 480,
            "byteOffset" : 46828
        },
        {
            "buffer" : 0,
            "byteLength" : 480,
            "byteOffset" : 47308
        },
        {
            "buffer" : 0,
            "byteLength" : 320,
            "byteOffset" : 47788
        }
    ],
    "buffers" : [
        {
            "byteLength" : 48108,
            "uri" : "data:application/octet-stream;base64,"
        }
    ]
}
